<?xml version="1.0" encoding="UTF-8"?>
<!DOCTYPE svg PUBLIC "-//W3C//DTD SVG 1.1//EN" "http://www.w3.org/Graphics/SVG/1.1/DTD/svg11.dtd">
<!-- Creator: CorelDRAW 2021 (64-Bit) -->
<svg xmlns="http://www.w3.org/2000/svg" xml:space="preserve" width="2.49217in" height="2.49217in" version="1.1" style="shape-rendering:geometricPrecision; text-rendering:geometricPrecision; image-rendering:optimizeQuality; fill-rule:evenodd; clip-rule:evenodd"
viewBox="0 0 2486.56 2486.56"
 xmlns:xlink="http://www.w3.org/1999/xlink"
 xmlns:xodm="http://www.corel.com/coreldraw/odm/2003">
 <defs>
  <style type="text/css">
   <![CDATA[
    .fil0 {fill:#00D8C0}
    .fil1 {fill:white}
   ]]>
  </style>
 </defs>
 <g id="Layer_x0020_1">
  <metadata id="CorelCorpID_0Corel-Layer"/>
  <circle class="fil0" cx="1243.28" cy="1243.28" r="1243.28"/>
  <g id="_1570979029712">
   <path class="fil1" d="M1526.66 1413.41l0 -172.38c0,-75.82 95.76,-75.82 95.76,0l0 172.38c0,75.82 -95.76,75.82 -95.76,0zm-287.29 0l0 -172.38c0,-75.82 95.76,-75.82 95.76,0l0 172.38c0,75.82 -95.76,75.82 -95.76,0zm-287.29 0l0 -172.38c0,-75.82 95.76,-75.82 95.76,0l0 172.38c0,75.82 -95.76,75.82 -95.76,0zm-676.73 -762.92c0,69.56 58.52,54.27 130.87,54.27 58.53,0 117.05,0.07 175.57,-0 95.91,-0.12 76.73,21.29 94.83,163.74 3.65,28.75 4.75,51.94 8.69,80.69 14.42,105.25 21.26,207.6 34.68,313.26l34.18 313.76c-57.95,30.67 -89.38,66.09 -89.38,140.46 0,49.93 28.65,86.44 56.91,109.08 38.52,30.88 74.56,28.18 141,28.18 -1.76,21.11 -6.39,12.39 -6.39,54.26 0,54.78 38.77,102.95 78.64,122.47 54.89,26.88 120.9,18.27 164.78,-25.89 34.75,-34.97 43.87,-61.86 43.87,-112.54 0,-18.29 -5.1,-22.83 -6.39,-38.3l300.06 0c-1.76,21.11 -6.38,12.39 -6.38,54.26 0,42.51 18.65,71.5 40.68,93.39 76.95,76.46 191.77,47.03 231.81,-34.76 46.85,-95.68 -19.96,-209.24 -128.78,-208.73l-740.66 0.1c-34.64,0.18 -55.04,-3.24 -67,-25.59 -12.78,-23.89 -2.05,-50.68 17.15,-62.6 17.87,-11.09 57.14,-7.59 84.98,-7.59l740.57 0c78.28,0 158.69,10.01 202.24,-75.47 20.89,-41 38.46,-181.1 46.75,-230.97 6.72,-40.46 51.07,-286.37 51.07,-322.41 0,-17.3 -16.62,-34.7 -30.77,-39.45 -17.28,-5.8 -191.54,-2.04 -218.21,-2.04 -290.48,0 -580.97,0 -871.45,0 -6.41,-27.52 -17.31,-142.41 -21.77,-182.52 -8.16,-73.39 -3.76,-112.78 -49.24,-158.25 -13.22,-13.22 -20.16,-19.95 -38.53,-28.5 -17.17,-8.01 -32.58,-13.78 -56.45,-13.78l-306.44 0c-19.57,0 -41.5,21.92 -41.5,41.49z"/>
   <path class="fil1" d="M1335.14 650.49l0 245.8 478.82 0 0 -245.8c0,-19.57 -21.92,-41.49 -41.5,-41.49l-395.82 0c-19.57,0 -41.5,21.92 -41.5,41.49z"/>
   <path class="fil1" d="M952.09 746.26l0 150.03 287.29 0 0 -191.52 -245.79 0c-19.57,0 -41.5,21.92 -41.5,41.5z"/>
  </g>
 </g>
</svg>
